<svg width="67" height="151" viewBox="0 0 67 151" fill="none" xmlns="http://www.w3.org/2000/svg">
<path d="M44.5 2.49987C50.9545 6.47941 55.8436 12.7697 58 19.9999C58.9513 27.2756 57.5858 34.0475 53.5586 40.203C49.5989 45.1642 45.1993 48.4055 39 49.9999C37.02 49.9999 35.04 49.9999 33 49.9999C33 56.5999 33 63.1999 33 69.9999C44.22 69.9999 55.44 69.9999 67 69.9999C67 70.6599 67 71.3199 67 71.9999C56.11 71.9999 45.22 71.9999 34 71.9999C34 89.4899 34 106.98 34 125C35.65 125.66 37.3 126.32 39 127C41.0199 128.445 42.9955 129.952 44.9375 131.5C48.5481 134.359 52.1729 137.156 55.9609 139.777C56.6043 140.223 57.2476 140.669 57.9104 141.129C59.1619 141.99 60.4188 142.843 61.6814 143.687C63.174 144.719 64.5951 145.852 66 147C66 147.99 66 148.98 66 150C65.0074 149.25 64.0148 148.499 62.9922 147.726C58.6731 144.469 54.3389 141.231 50 138C49.3231 137.494 48.6462 136.988 47.9487 136.466C46.0769 135.072 44.1965 133.69 42.3125 132.312C41.4682 131.68 41.4682 131.68 40.6069 131.036C37.4875 128.776 34.922 126.981 31 127C28.5842 128.538 28.5842 128.538 26.375 130.875C22.7917 134.309 19.1749 137.569 15.3125 140.687C11.1474 144.06 7.04975 147.49 3 151C2.34 150.67 1.68 150.34 1 150C7.24274 144.216 13.5538 138.623 20.1992 133.301C21.1235 132.541 22.0477 131.782 23 131C23.9842 130.341 23.9842 130.341 24.9884 129.668C28.2775 127.255 30.6113 125.378 31.743 121.365C32.0204 118.2 32.056 115.118 32 111.941C32.0109 110.797 32.0218 109.653 32.033 108.474C32.0591 104.836 32.0303 101.2 32 97.5624C32.0081 95.0891 32.0198 92.6157 32.0352 90.1424C32.0717 84.0932 32.034 78.0508 32 71.9999C21.44 71.9999 10.88 71.9999 0 71.9999C0 71.3399 0 70.6799 0 69.9999C10.56 69.9999 21.12 69.9999 32 69.9999C32 63.3999 32 56.7999 32 49.9999C29.69 49.9999 27.38 49.9999 25 49.9999C17.4829 47.1851 12.5114 42.1262 9 34.9999C6.78413 28.2299 7.16105 20.2632 10.0352 13.7733C16.7847 1.36724 31.3663 -3.20931 44.5 2.49987ZM12.5664 12.8788C8.41718 18.4973 9.38969 26.3489 10 32.9999C12.445 39.987 17.987 44.3512 24.3125 47.8124C31.5864 50.1548 37.1764 49.5327 43.9961 46.1288C49.9257 42.7883 53.5786 38.6809 55.5859 32.0702C57.0473 24.7635 56.2404 18.7978 52.625 12.2655C48.9446 7.13417 43.9343 3.99292 38 1.99987C26.2964 0.495367 20.0407 4.20512 12.5664 12.8788Z" fill="#2E2E2E"/>
</svg>

