<svg width="27" height="24" viewBox="0 0 27 24" fill="none" xmlns="http://www.w3.org/2000/svg">
<path d="M22.5 22H20.25V20C20.25 18.3431 18.739 17 16.875 17H10.125C8.26104 17 6.75 18.3431 6.75 20V22H4.5V20C4.5 17.2386 7.0184 15 10.125 15H16.875C19.9816 15 22.5 17.2386 22.5 20V22ZM13.5 13C9.77208 13 6.75 10.3137 6.75 7C6.75 3.68629 9.77208 1 13.5 1C17.2279 1 20.25 3.68629 20.25 7C20.25 10.3137 17.2279 13 13.5 13ZM13.5 11C15.9852 11 18 9.20914 18 7C18 4.79086 15.9852 3 13.5 3C11.0147 3 9 4.79086 9 7C9 9.20914 11.0147 11 13.5 11Z" fill="#1C1C1C"/>
</svg>
